<svg xmlns="http://www.w3.org/2000/svg" xmlns:xlink="http://www.w3.org/1999/xlink" viewBox="0,0,256,256" width="48px" height="48px" fill-rule="nonzero"><g fill="#279b0f" fill-rule="nonzero" stroke="none" stroke-width="1" stroke-linecap="butt" stroke-linejoin="miter" stroke-miterlimit="10" stroke-dasharray="" stroke-dashoffset="0" font-family="none" font-weight="none" font-size="none" text-anchor="none" style="mix-blend-mode: normal"><g transform="scale(5.33333,5.33333)"><path d="M47,30l-19,-19c-0.7,-0.7 -1.6,-1 -2.5,-1c-0.9,0 -1.8,0.3 -2.5,1l-9.5,9.5l-7.5,-7.5c-1.4,-1.4 -3.6,-1.4 -5,0c-1.4,1.4 -1.4,3.6 0,4.9l19,19c0.7,0.7 1.6,1 2.5,1c0.9,0 1.8,-0.3 2.5,-1l9.5,-9.5l7.5,7.6c1.4,1.4 3.6,1.4 5,0c1.3,-1.4 1.3,-3.6 0,-5zM22.5,29.5l-4.1,-4l7,-7l4.1,4z"></path></g></g></svg>